<svg version="1.1" id="Layer_1" xmlns="http://www.w3.org/2000/svg" xmlns:xlink="http://www.w3.org/1999/xlink" x="0px" y="0px"
	 width="100%" viewBox="0 0 368 368" enable-background="new 0 0 368 368" xml:space="preserve">
<path fill="#000000" opacity="1.000000" stroke="none" 
	d="
M205.000000,369.000000 
	C136.689697,369.000000 68.879410,369.000000 1.034557,369.000000 
	C1.034557,246.398041 1.034557,123.796066 1.034557,1.097049 
	C123.560234,1.097049 246.120575,1.097049 368.840454,1.097049 
	C368.840454,123.666504 368.840454,246.333237 368.840454,369.000000 
	C314.462830,369.000000 259.981415,369.000000 205.000000,369.000000 
M211.221878,140.805344 
	C212.346451,142.748383 214.067017,144.569275 214.494553,146.655197 
	C216.577332,156.817078 218.269043,167.058517 220.228302,177.246979 
	C220.488861,178.601913 221.486740,179.815079 222.143158,181.093887 
	C222.656296,180.832947 223.169434,180.571991 223.682556,180.311050 
	C221.945679,169.770386 220.574631,159.149231 218.281845,148.730911 
	C217.430908,144.864410 214.418457,141.473618 212.040543,137.205322 
	C206.412292,123.244278 200.513519,109.381470 195.379364,95.241035 
	C194.326370,92.340897 195.017319,87.584167 196.836685,85.096275 
	C202.076660,77.930840 211.368500,79.917915 215.460297,88.702896 
	C221.943680,102.622505 228.313797,116.595345 234.653656,130.581100 
	C237.437149,136.721481 241.286591,142.717758 242.474426,149.179764 
	C246.275513,169.858414 249.104843,190.717285 252.215790,211.520569 
	C254.068054,223.906784 255.554092,225.669479 267.250397,228.567535 
	C281.115936,211.832123 295.028320,195.297501 308.587097,178.477829 
	C311.636505,174.695023 315.459351,169.944962 315.520203,165.592590 
	C316.060516,126.937225 315.912506,88.270874 315.776245,49.608440 
	C315.744446,40.587402 311.547180,35.960514 302.190643,36.002422 
	C289.858734,36.057648 277.526428,36.015182 265.194275,36.015194 
	C203.700241,36.015263 142.206146,35.982365 80.712372,36.109394 
	C77.497337,36.116035 73.994614,36.908958 71.140022,38.352577 
	C66.913261,40.490128 66.050568,44.832180 66.066689,49.304768 
	C66.094017,56.886948 66.074196,64.469299 66.074196,72.117027 
	C56.171028,72.117027 47.005932,72.068253 37.841644,72.133270 
	C31.141907,72.180801 27.546715,74.596992 26.234098,79.701492 
	C23.353365,90.904091 27.955339,96.873810 39.478920,96.877426 
	C48.248653,96.880173 57.018387,96.877968 65.861954,96.877968 
	C65.861954,111.173225 65.861954,124.924553 65.861954,139.041687 
	C56.198490,139.041687 46.732651,138.804459 37.292019,139.187836 
	C34.499424,139.301224 31.149237,140.491272 29.148138,142.359375 
	C24.225956,146.954422 25.358822,152.990417 27.065077,158.640869 
	C28.721363,164.125824 33.816391,164.557892 38.313370,164.728699 
	C47.418217,165.074509 56.545403,164.831894 65.762215,164.831894 
	C65.762215,179.134583 65.762215,193.010971 65.762215,206.833694 
	C65.135757,206.951370 64.819855,207.062073 64.503746,207.062622 
	C55.338158,207.078629 46.172539,207.079865 37.006935,207.091721 
	C31.199215,207.099228 26.839252,210.198990 26.096415,214.832520 
	C24.656792,223.812363 27.099262,229.806534 33.334496,231.502380 
	C35.829002,232.180832 38.612713,231.867722 41.265354,231.879639 
	C49.511105,231.916687 57.757130,231.893219 65.762390,231.893219 
	C65.762390,246.063400 65.762390,259.484711 65.762390,273.064117 
	C56.135857,273.064117 46.819866,273.025665 37.504807,273.101135 
	C35.914764,273.114014 34.221996,273.348297 32.759422,273.935455 
	C26.780188,276.335815 24.462444,282.403442 26.120888,290.693115 
	C27.170448,295.939270 31.587757,298.624237 37.505039,298.784088 
	C46.931320,299.038666 56.369518,298.852112 66.073738,298.852112 
	C66.073738,306.387360 66.446350,313.383362 65.991837,320.325226 
	C65.184448,332.656586 71.312721,336.835785 82.508789,336.823730 
	C116.672104,336.786926 150.835480,336.810516 184.998840,336.810211 
	C191.437561,336.810150 192.242584,335.789154 192.950958,329.311188 
	C193.403381,325.173889 193.614532,320.398682 195.805618,317.186035 
	C200.901779,309.713837 207.155945,303.034729 212.895401,295.997192 
	C222.255463,284.520203 231.426437,272.883881 241.010147,261.597504 
	C243.939362,258.147888 243.344315,256.553375 239.812973,254.537262 
	C229.434586,248.612045 219.087921,242.625122 208.855255,236.452744 
	C199.729782,230.948227 194.339493,223.278397 194.475281,212.022995 
	C194.726547,191.194702 194.980942,170.347855 194.337067,149.536484 
	C194.077652,141.152176 203.027618,134.206451 211.221878,140.805344 
M215.080643,299.755890 
	C210.253052,305.811279 205.425446,311.866699 200.566345,317.961609 
	C209.716064,324.748505 218.283722,331.203796 227.014526,337.430298 
	C227.922974,338.078217 230.368637,337.943359 231.128326,337.190338 
	C234.482880,333.865143 237.593018,330.272125 240.588409,326.609802 
	C250.616302,314.349152 260.574799,302.031525 270.526764,289.708984 
	C282.915192,274.369629 295.243011,258.981323 307.652008,243.658646 
	C313.933594,235.902161 320.396729,228.292206 326.640167,220.505676 
	C328.157227,218.613693 328.348907,216.624557 325.669617,215.003815 
	C323.243591,213.536301 321.173920,211.490402 318.887726,209.778854 
	C312.587372,205.062210 306.255920,200.387146 299.778229,195.577927 
	C290.005554,207.571655 280.647919,219.056000 271.043579,230.843124 
	C274.289062,232.356812 277.456451,233.737869 280.537689,235.289978 
	C288.445282,239.273224 292.280548,250.000900 288.855804,258.362061 
	C285.135132,267.445679 274.809326,272.671051 266.095917,269.258545 
	C261.044189,267.280121 256.295288,264.391479 251.681168,261.482544 
	C248.783676,259.655853 246.910324,260.014282 245.014465,262.613007 
	C243.050735,265.304779 241.049744,267.975677 238.940826,270.554077 
	C231.135117,280.097351 223.278091,289.598663 215.080643,299.755890 
M315.841064,280.500061 
	C315.841064,267.766449 315.841064,255.032822 315.841064,242.299210 
	C315.429688,242.111023 315.018311,241.922836 314.606964,241.734650 
	C289.192719,273.063629 263.778503,304.392578 237.476562,336.815826 
	C259.431488,336.815826 279.544617,336.785858 299.657593,336.828339 
	C309.856323,336.849915 316.144928,332.530762 315.904297,320.985474 
	C315.630066,307.828949 315.841003,294.662354 315.841064,280.500061 
M343.299835,171.132782 
	C341.028961,169.452621 338.783722,167.736343 336.482300,166.099167 
	C330.017120,161.500015 326.559143,162.128845 321.852936,168.604019 
	C320.721008,170.161423 319.289490,171.501160 318.158752,173.059280 
	C315.746796,176.382889 312.666595,179.552185 311.548676,183.289749 
	C311.197540,184.463715 316.244720,187.241074 318.796417,189.314880 
	C319.011017,189.489319 318.948120,190.015701 319.164337,190.176071 
	C325.834564,195.123444 332.523590,200.045532 339.206848,204.969421 
	C343.411987,199.529221 347.350037,194.280334 351.458710,189.168564 
	C354.660614,185.184998 354.914215,181.622742 351.519287,178.151749 
	C349.184937,175.765091 346.462433,173.758057 343.299835,171.132782 
M197.079041,331.480072 
	C193.254990,339.215881 199.026138,342.355896 203.979187,345.888733 
	C204.640640,346.360504 205.235046,347.084869 205.967117,347.269501 
	C208.206268,347.834229 210.828690,349.116608 212.701584,348.445129 
	C217.013153,346.899353 220.970139,344.364563 225.484634,342.015961 
	C216.601028,335.321747 208.209671,328.998444 199.370255,322.337524 
	C198.449219,325.647797 197.753433,328.148560 197.079041,331.480072 
M320.085968,205.411423 
	C322.924194,207.586258 325.838104,209.670639 328.578400,211.962585 
	C331.082550,214.057037 332.713470,212.719330 334.473633,210.928909 
	C336.905334,208.455414 334.735382,207.082184 333.169250,205.861359 
	C326.383789,200.572083 319.531860,195.366211 312.638733,190.217560 
	C307.146973,186.115677 307.104950,186.171951 303.021576,192.342758 
	C308.510071,196.534195 314.014404,200.737717 320.085968,205.411423 
M203.893188,351.750244 
	C201.087189,349.263672 198.281204,346.777100 194.570969,343.489227 
	C193.365250,348.868256 192.488159,352.781189 191.383682,357.708588 
	C195.984726,355.796143 199.931412,354.155670 203.893188,351.750244 
z"/>
<path fill="#FCFCFC" opacity="1.000000" stroke="none" 
	d="
M210.967819,140.146774 
	C203.027618,134.206451 194.077652,141.152176 194.337067,149.536484 
	C194.980942,170.347855 194.726547,191.194702 194.475281,212.022995 
	C194.339493,223.278397 199.729782,230.948227 208.855255,236.452744 
	C219.087921,242.625122 229.434586,248.612045 239.812973,254.537262 
	C243.344315,256.553375 243.939362,258.147888 241.010147,261.597504 
	C231.426437,272.883881 222.255463,284.520203 212.895401,295.997192 
	C207.155945,303.034729 200.901779,309.713837 195.805618,317.186035 
	C193.614532,320.398682 193.403381,325.173889 192.950958,329.311188 
	C192.242584,335.789154 191.437561,336.810150 184.998840,336.810211 
	C150.835480,336.810516 116.672104,336.786926 82.508789,336.823730 
	C71.312721,336.835785 65.184448,332.656586 65.991837,320.325226 
	C66.446350,313.383362 66.073738,306.387360 66.073738,298.852112 
	C56.369518,298.852112 46.931320,299.038666 37.505039,298.784088 
	C31.587757,298.624237 27.170448,295.939270 26.120888,290.693115 
	C24.462444,282.403442 26.780188,276.335815 32.759422,273.935455 
	C34.221996,273.348297 35.914764,273.114014 37.504807,273.101135 
	C46.819866,273.025665 56.135857,273.064117 65.762390,273.064117 
	C65.762390,259.484711 65.762390,246.063400 65.762390,231.893219 
	C57.757130,231.893219 49.511105,231.916687 41.265354,231.879639 
	C38.612713,231.867722 35.829002,232.180832 33.334496,231.502380 
	C27.099262,229.806534 24.656792,223.812363 26.096415,214.832520 
	C26.839252,210.198990 31.199215,207.099228 37.006935,207.091721 
	C46.172539,207.079865 55.338158,207.078629 64.503746,207.062622 
	C64.819855,207.062073 65.135757,206.951370 65.762215,206.833694 
	C65.762215,193.010971 65.762215,179.134583 65.762215,164.831894 
	C56.545403,164.831894 47.418217,165.074509 38.313370,164.728699 
	C33.816391,164.557892 28.721363,164.125824 27.065077,158.640869 
	C25.358822,152.990417 24.225956,146.954422 29.148138,142.359375 
	C31.149237,140.491272 34.499424,139.301224 37.292019,139.187836 
	C46.732651,138.804459 56.198490,139.041687 65.861954,139.041687 
	C65.861954,124.924553 65.861954,111.173225 65.861954,96.877968 
	C57.018387,96.877968 48.248653,96.880173 39.478920,96.877426 
	C27.955339,96.873810 23.353365,90.904091 26.234098,79.701492 
	C27.546715,74.596992 31.141907,72.180801 37.841644,72.133270 
	C47.005932,72.068253 56.171028,72.117027 66.074196,72.117027 
	C66.074196,64.469299 66.094017,56.886948 66.066689,49.304768 
	C66.050568,44.832180 66.913261,40.490128 71.140022,38.352577 
	C73.994614,36.908958 77.497337,36.116035 80.712372,36.109394 
	C142.206146,35.982365 203.700241,36.015263 265.194275,36.015194 
	C277.526428,36.015182 289.858734,36.057648 302.190643,36.002422 
	C311.547180,35.960514 315.744446,40.587402 315.776245,49.608440 
	C315.912506,88.270874 316.060516,126.937225 315.520203,165.592590 
	C315.459351,169.944962 311.636505,174.695023 308.587097,178.477829 
	C295.028320,195.297501 281.115936,211.832123 267.250397,228.567535 
	C255.554092,225.669479 254.068054,223.906784 252.215790,211.520569 
	C249.104843,190.717285 246.275513,169.858414 242.474426,149.179764 
	C241.286591,142.717758 237.437149,136.721481 234.653656,130.581100 
	C228.313797,116.595345 221.943680,102.622505 215.460297,88.702896 
	C211.368500,79.917915 202.076660,77.930840 196.836685,85.096275 
	C195.017319,87.584167 194.326370,92.340897 195.379364,95.241035 
	C200.513519,109.381470 206.412292,123.244278 211.914276,137.717041 
	C211.514603,138.868103 211.241211,139.507446 210.967819,140.146774 
M168.500900,156.971588 
	C167.003830,164.947510 165.506775,172.923431 164.009705,180.899353 
	C163.105713,180.710251 162.201721,180.521149 161.297745,180.332031 
	C163.840988,167.778931 166.165665,155.174469 169.094009,142.711868 
	C169.756622,139.891937 173.039780,137.784805 174.222916,134.973450 
	C179.554764,122.304070 184.914536,109.621758 189.453888,96.660309 
	C190.637833,93.279724 190.201569,88.003571 188.255692,85.117630 
	C183.467377,78.016052 173.892609,79.870819 169.901917,88.308952 
	C163.593185,101.648521 157.481995,115.083603 151.450500,128.551407 
	C148.072495,136.094208 144.094574,143.546509 142.066467,151.469513 
	C139.659988,160.870636 139.036743,170.730850 137.681992,180.397903 
	C135.982529,192.524628 134.685028,204.725372 132.410873,216.742172 
	C131.797989,219.980667 128.863708,223.636414 125.961609,225.402023 
	C120.378113,228.798965 113.818092,230.564453 108.122009,233.811630 
	C104.094704,236.107468 99.872765,239.111755 97.419281,242.891357 
	C92.864204,249.908493 94.915764,259.577423 100.920189,265.231995 
	C106.945732,270.906464 115.984337,271.937317 123.552773,267.535522 
	C141.480118,257.109070 159.436295,246.725937 177.181625,235.995880 
	C184.186707,231.760132 189.296036,225.690659 190.442474,217.105133 
	C190.770264,214.650360 191.276031,212.183945 191.264587,209.724884 
	C191.170868,189.576035 190.999908,169.427429 190.794189,149.279327 
	C190.725540,142.554565 188.312851,139.459442 182.725601,138.564362 
	C176.032745,137.492142 172.321335,139.668182 170.344772,146.334167 
	C169.409454,149.488525 169.160934,152.846558 168.500900,156.971588 
M77.599312,282.344543 
	C76.558815,290.167389 79.078415,295.145630 85.865387,298.676666 
	C91.390656,301.551208 97.923447,300.744659 102.465012,296.627167 
	C107.221199,292.315094 109.011543,285.454437 106.262894,279.894409 
	C103.610107,274.528320 99.314919,271.229431 92.937027,271.096588 
	C85.270264,270.936951 80.570534,274.850769 77.599312,282.344543 
M77.898262,89.201958 
	C78.522957,90.367035 79.045303,91.602455 79.789619,92.685310 
	C83.499481,98.082565 90.410034,100.408058 96.907509,98.515671 
	C102.712082,96.825096 107.175392,91.315895 107.367973,85.489578 
	C107.566612,79.479553 104.965927,74.860710 99.839645,71.895271 
	C94.104919,68.577866 88.413902,69.074196 83.166389,73.138344 
	C78.122078,77.045120 76.171440,82.141296 77.898262,89.201958 
M83.348549,207.637604 
	C82.726540,208.185242 82.049484,208.682236 81.491341,209.288666 
	C77.460533,213.668167 75.842171,218.753342 78.158562,224.377121 
	C80.629761,230.376724 85.533112,233.875259 91.917290,234.160431 
	C97.904602,234.427902 102.776199,231.623703 105.676796,226.123489 
	C108.677444,220.433517 107.741272,213.769440 103.485168,209.589737 
	C97.891739,204.096741 91.295662,203.295868 83.348549,207.637604 
M89.938454,166.277771 
	C90.770729,166.286423 91.603256,166.313019 92.435234,166.300980 
	C100.656982,166.181946 107.037323,160.353119 107.379898,152.655243 
	C107.734322,144.690903 101.683884,138.007721 93.480949,137.302734 
	C86.448784,136.698364 78.993919,142.121155 77.524124,148.910004 
	C75.891190,156.452347 80.244041,162.902267 89.938454,166.277771 
z"/>
<path fill="#FBFBFB" opacity="1.000000" stroke="none" 
	d="
M215.260498,299.435822 
	C223.278091,289.598663 231.135117,280.097351 238.940826,270.554077 
	C241.049744,267.975677 243.050735,265.304779 245.014465,262.613007 
	C246.910324,260.014282 248.783676,259.655853 251.681168,261.482544 
	C256.295288,264.391479 261.044189,267.280121 266.095917,269.258545 
	C274.809326,272.671051 285.135132,267.445679 288.855804,258.362061 
	C292.280548,250.000900 288.445282,239.273224 280.537689,235.289978 
	C277.456451,233.737869 274.289062,232.356812 271.043579,230.843124 
	C280.647919,219.056000 290.005554,207.571655 299.778229,195.577927 
	C306.255920,200.387146 312.587372,205.062210 318.887726,209.778854 
	C321.173920,211.490402 323.243591,213.536301 325.669617,215.003815 
	C328.348907,216.624557 328.157227,218.613693 326.640167,220.505676 
	C320.396729,228.292206 313.933594,235.902161 307.652008,243.658646 
	C295.243011,258.981323 282.915192,274.369629 270.526764,289.708984 
	C260.574799,302.031525 250.616302,314.349152 240.588409,326.609802 
	C237.593018,330.272125 234.482880,333.865143 231.128326,337.190338 
	C230.368637,337.943359 227.922974,338.078217 227.014526,337.430298 
	C218.283722,331.203796 209.716064,324.748505 200.566345,317.961609 
	C205.425446,311.866699 210.253052,305.811279 215.260498,299.435822 
z"/>
<path fill="#FAFAFA" opacity="1.000000" stroke="none" 
	d="
M315.841064,281.000092 
	C315.841003,294.662354 315.630066,307.828949 315.904297,320.985474 
	C316.144928,332.530762 309.856323,336.849915 299.657593,336.828339 
	C279.544617,336.785858 259.431488,336.815826 237.476562,336.815826 
	C263.778503,304.392578 289.192719,273.063629 314.606964,241.734650 
	C315.018311,241.922836 315.429688,242.111023 315.841064,242.299210 
	C315.841064,255.032822 315.841064,267.766449 315.841064,281.000092 
z"/>
<path fill="#FAFAFA" opacity="1.000000" stroke="none" 
	d="
M343.606628,171.357056 
	C346.462433,173.758057 349.184937,175.765091 351.519287,178.151749 
	C354.914215,181.622742 354.660614,185.184998 351.458710,189.168564 
	C347.350037,194.280334 343.411987,199.529221 339.206848,204.969421 
	C332.523590,200.045532 325.834564,195.123444 319.164337,190.176071 
	C318.948120,190.015701 319.011017,189.489319 318.796417,189.314880 
	C316.244720,187.241074 311.197540,184.463715 311.548676,183.289749 
	C312.666595,179.552185 315.746796,176.382889 318.158752,173.059280 
	C319.289490,171.501160 320.721008,170.161423 321.852936,168.604019 
	C326.559143,162.128845 330.017120,161.500015 336.482300,166.099167 
	C338.783722,167.736343 341.028961,169.452621 343.606628,171.357056 
z"/>
<path fill="#F7F7F7" opacity="1.000000" stroke="none" 
	d="
M197.068344,331.064697 
	C197.753433,328.148560 198.449219,325.647797 199.370255,322.337524 
	C208.209671,328.998444 216.601028,335.321747 225.484634,342.015961 
	C220.970139,344.364563 217.013153,346.899353 212.701584,348.445129 
	C210.828690,349.116608 208.206268,347.834229 205.967117,347.269501 
	C205.235046,347.084869 204.640640,346.360504 203.979187,345.888733 
	C199.026138,342.355896 193.254990,339.215881 197.068344,331.064697 
z"/>
<path fill="#F2F2F2" opacity="1.000000" stroke="none" 
	d="
M319.802368,205.176331 
	C314.014404,200.737717 308.510071,196.534195 303.021576,192.342758 
	C307.104950,186.171951 307.146973,186.115677 312.638733,190.217560 
	C319.531860,195.366211 326.383789,200.572083 333.169250,205.861359 
	C334.735382,207.082184 336.905334,208.455414 334.473633,210.928909 
	C332.713470,212.719330 331.082550,214.057037 328.578400,211.962585 
	C325.838104,209.670639 322.924194,207.586258 319.802368,205.176331 
z"/>
<path fill="#D0D0D0" opacity="1.000000" stroke="none" 
	d="
M211.094849,140.476059 
	C211.241211,139.507446 211.514603,138.868103 212.089859,138.047333 
	C214.418457,141.473618 217.430908,144.864410 218.281845,148.730911 
	C220.574631,159.149231 221.945679,169.770386 223.682556,180.311050 
	C223.169434,180.571991 222.656296,180.832947 222.143158,181.093887 
	C221.486740,179.815079 220.488861,178.601913 220.228302,177.246979 
	C218.269043,167.058517 216.577332,156.817078 214.494553,146.655197 
	C214.067017,144.569275 212.346451,142.748383 211.094849,140.476059 
z"/>
<path fill="#ECECEC" opacity="1.000000" stroke="none" 
	d="
M203.885651,352.132751 
	C199.931412,354.155670 195.984726,355.796143 191.383682,357.708588 
	C192.488159,352.781189 193.365250,348.868256 194.570969,343.489227 
	C198.281204,346.777100 201.087189,349.263672 203.885651,352.132751 
z"/>
<path fill="#020202" opacity="1.000000" stroke="none" 
	d="
M168.551086,156.541946 
	C169.160934,152.846558 169.409454,149.488525 170.344772,146.334167 
	C172.321335,139.668182 176.032745,137.492142 182.725601,138.564362 
	C188.312851,139.459442 190.725540,142.554565 190.794189,149.279327 
	C190.999908,169.427429 191.170868,189.576035 191.264587,209.724884 
	C191.276031,212.183945 190.770264,214.650360 190.442474,217.105133 
	C189.296036,225.690659 184.186707,231.760132 177.181625,235.995880 
	C159.436295,246.725937 141.480118,257.109070 123.552773,267.535522 
	C115.984337,271.937317 106.945732,270.906464 100.920189,265.231995 
	C94.915764,259.577423 92.864204,249.908493 97.419281,242.891357 
	C99.872765,239.111755 104.094704,236.107468 108.122009,233.811630 
	C113.818092,230.564453 120.378113,228.798965 125.961609,225.402023 
	C128.863708,223.636414 131.797989,219.980667 132.410873,216.742172 
	C134.685028,204.725372 135.982529,192.524628 137.681992,180.397903 
	C139.036743,170.730850 139.659988,160.870636 142.066467,151.469513 
	C144.094574,143.546509 148.072495,136.094208 151.450500,128.551407 
	C157.481995,115.083603 163.593185,101.648521 169.901917,88.308952 
	C173.892609,79.870819 183.467377,78.016052 188.255692,85.117630 
	C190.201569,88.003571 190.637833,93.279724 189.453888,96.660309 
	C184.914536,109.621758 179.554764,122.304070 174.222916,134.973450 
	C173.039780,137.784805 169.756622,139.891937 169.094009,142.711868 
	C166.165665,155.174469 163.840988,167.778931 161.297745,180.332031 
	C162.201721,180.521149 163.105713,180.710251 164.009705,180.899353 
	C165.506775,172.923431 167.003830,164.947510 168.551086,156.541946 
z"/>
<path fill="#050505" opacity="1.000000" stroke="none" 
	d="
M77.655975,281.953735 
	C80.570534,274.850769 85.270264,270.936951 92.937027,271.096588 
	C99.314919,271.229431 103.610107,274.528320 106.262894,279.894409 
	C109.011543,285.454437 107.221199,292.315094 102.465012,296.627167 
	C97.923447,300.744659 91.390656,301.551208 85.865387,298.676666 
	C79.078415,295.145630 76.558815,290.167389 77.655975,281.953735 
z"/>
<path fill="#040404" opacity="1.000000" stroke="none" 
	d="
M77.796127,88.820068 
	C76.171440,82.141296 78.122078,77.045120 83.166389,73.138344 
	C88.413902,69.074196 94.104919,68.577866 99.839645,71.895271 
	C104.965927,74.860710 107.566612,79.479553 107.367973,85.489578 
	C107.175392,91.315895 102.712082,96.825096 96.907509,98.515671 
	C90.410034,100.408058 83.499481,98.082565 79.789619,92.685310 
	C79.045303,91.602455 78.522957,90.367035 77.796127,88.820068 
z"/>
<path fill="#040404" opacity="1.000000" stroke="none" 
	d="
M83.669815,207.430237 
	C91.295662,203.295868 97.891739,204.096741 103.485168,209.589737 
	C107.741272,213.769440 108.677444,220.433517 105.676796,226.123489 
	C102.776199,231.623703 97.904602,234.427902 91.917290,234.160431 
	C85.533112,233.875259 80.629761,230.376724 78.158562,224.377121 
	C75.842171,218.753342 77.460533,213.668167 81.491341,209.288666 
	C82.049484,208.682236 82.726540,208.185242 83.669815,207.430237 
z"/>
<path fill="#050505" opacity="1.000000" stroke="none" 
	d="
M89.526779,166.181458 
	C80.244041,162.902267 75.891190,156.452347 77.524124,148.910004 
	C78.993919,142.121155 86.448784,136.698364 93.480949,137.302734 
	C101.683884,138.007721 107.734322,144.690903 107.379898,152.655243 
	C107.037323,160.353119 100.656982,166.181946 92.435234,166.300980 
	C91.603256,166.313019 90.770729,166.286423 89.526779,166.181458 
z"/>
</svg>